<svg xmlns="http://www.w3.org/2000/svg" viewBox="0 0 1040 320">
    <path fill="#f9fafb" fill-opacity="1"
          d="M0,160L18.5,165.3C36.9,171,74,181,111,197.3C147.7,213,185,235,222,202.7C258.5,171,295,85,332,90.7C369.2,96,406,192,443,218.7C480,245,517,203,554,160C590.8,117,628,75,665,69.3C701.5,64,738,96,775,101.3C812.3,107,849,85,886,69.3C923.1,53,960,43,997,48C1033.8,53,1071,75,1108,122.7C1144.6,171,1182,245,1218,282.7C1255.4,320,1292,320,1329,309.3C1366.2,299,1403,277,1422,266.7L1440,256L1440,320L1421.5,320C1403.1,320,1366,320,1329,320C1292.3,320,1255,320,1218,320C1181.5,320,1145,320,1108,320C1070.8,320,1034,320,997,320C960,320,923,320,886,320C849.2,320,812,320,775,320C738.5,320,702,320,665,320C627.7,320,591,320,554,320C516.9,320,480,320,443,320C406.2,320,369,320,332,320C295.4,320,258,320,222,320C184.6,320,148,320,111,320C73.8,320,37,320,18,320L0,320Z"></path>
</svg>