<?xml version="1.0" standalone="no"?>
<!DOCTYPE svg PUBLIC "-//W3C//DTD SVG 20010904//EN"
 "http://www.w3.org/TR/2001/REC-SVG-20010904/DTD/svg10.dtd">
<svg version="1.0" xmlns="http://www.w3.org/2000/svg"
 width="188.000000pt" height="193.000000pt" viewBox="0 0 188.000000 193.000000"
 preserveAspectRatio="xMidYMid meet">

<g transform="translate(0.000000,193.000000) scale(0.100000,-0.100000)"
fill="#D4D4D4" stroke="#18181B" stroke-width="5">
<path d="M1760 1909 c-129 -15 -399 -68 -532 -105 -571 -157 -851 -360 -989
-719 -59 -153 -75 -311 -44 -443 29 -122 -5 -143 384 237 192 188 353 341 358
341 12 0 73 -63 73 -75 0 -6 -222 -232 -492 -502 l-493 -493 63 -62 62 -63
142 141 143 141 80 -30 c120 -44 247 -48 386 -13 114 29 236 83 326 144 103
70 103 72 -30 72 -121 0 -133 4 -123 43 4 18 25 28 123 56 65 19 156 46 201
59 l84 26 44 75 c24 42 44 81 44 88 0 10 -31 13 -125 13 l-125 0 0 30 c0 36
-11 31 185 90 l149 45 43 134 c70 216 127 490 149 714 4 37 3 66 -2 66 -5 -1
-43 -5 -84 -10z"/>
</g>
</svg>
