<svg xmlns="http://www.w3.org/2000/svg" width="50" zoomAndPan="magnify"
     viewBox="0 0 37.5 37.499999" height="50" preserveAspectRatio="xMidYMid meet" version="1.0">
    <defs>
        <clipPath id="3b8556c120">
            <path d="M 2 0.476562 L 12 0.476562 L 12 12 L 2 12 Z M 2 0.476562 " clip-rule="nonzero"/>
        </clipPath>
        <clipPath id="49b828463c">
            <path d="M 12 0.476562 L 22 0.476562 L 22 12 L 12 12 Z M 12 0.476562 " clip-rule="nonzero"/>
        </clipPath>
        <clipPath id="78cb17c64c">
            <path d="M 3 29 L 11 29 L 11 37.007812 L 3 37.007812 Z M 3 29 " clip-rule="nonzero"/>
        </clipPath>
        <clipPath id="89a4d6d5f5">
            <path d="M 13 29 L 20 29 L 20 37.007812 L 13 37.007812 Z M 13 29 " clip-rule="nonzero"/>
        </clipPath>
        <clipPath id="65a8fbdeb2">
            <path d="M 10 32 L 14 32 L 14 37.007812 L 10 37.007812 Z M 10 32 " clip-rule="nonzero"/>
        </clipPath>
        <clipPath id="6c5f11f793">
            <path d="M 17 5 L 37.007812 5 L 37.007812 33 L 17 33 Z M 17 5 " clip-rule="nonzero"/>
        </clipPath>
    </defs>
    <path
            d="M 1.25 15.75 C 1.453125 15.710938 1.660156 15.6875 1.875 15.6875 L 2.5 15.6875 L 2.5 13.15625 L 1.25 13.15625 Z M 1.25 15.75 "
            fill-opacity="1" fill-rule="nonzero"/>
    <path
            d="M 0 18.851562 C 0 19.898438 0.839844 20.753906 1.875 20.753906 L 2.5 20.753906 L 2.5 19.824219 L 0.902344 18.746094 L 1.597656 17.691406 L 2.5 18.304688 L 2.5 16.953125 L 1.875 16.953125 C 0.839844 16.953125 0 17.804688 0 18.851562 Z M 0 18.851562 "
            fill-opacity="1" fill-rule="nonzero"/>
    <g clip-path="url(#3b8556c120)">
        <path
                d="M 7.535156 11.53125 C 6.710938 10.585938 6.25 9.375 6.25 8.089844 L 7.5 8.089844 C 7.5 8.863281 7.71875 9.597656 8.125 10.230469 C 8.582031 9.699219 9.25 9.355469 10 9.355469 L 10 10.621094 C 9.3125 10.621094 8.75 11.191406 8.75 11.886719 L 11.25 11.886719 L 11.25 0.839844 C 10.871094 0.613281 10.445312 0.492188 10 0.492188 C 8.621094 0.492188 7.5 1.628906 7.5 3.023438 C 7.5 3.378906 7.570312 3.71875 7.707031 4.039062 L 6.5625 4.542969 C 6.363281 4.085938 6.261719 3.597656 6.253906 3.09375 C 6.046875 3.050781 5.839844 3.023438 5.625 3.023438 C 3.902344 3.023438 2.5 4.445312 2.5 6.191406 C 2.5 6.667969 2.609375 7.125 2.808594 7.546875 C 3.425781 7.09375 4.183594 6.824219 5 6.824219 L 5 8.089844 C 3.621094 8.089844 2.5 9.226562 2.5 10.621094 L 2.5 11.886719 L 7.5 11.886719 C 7.5 11.765625 7.519531 11.648438 7.535156 11.53125 Z M 7.535156 11.53125 "
                fill-opacity="1" fill-rule="nonzero"/>
    </g>
    <path
            d="M 21.875 16.953125 L 21.25 16.953125 L 21.25 18.304688 L 22.152344 17.691406 L 22.847656 18.746094 L 21.25 19.824219 L 21.25 20.753906 L 21.875 20.753906 C 22.910156 20.753906 23.75 19.898438 23.75 18.851562 C 23.75 17.804688 22.910156 16.953125 21.875 16.953125 Z M 21.875 16.953125 "
            fill-opacity="1" fill-rule="nonzero"/>
    <path
            d="M 9.375 28.351562 L 14.375 28.351562 C 17.476562 28.351562 20 25.792969 20 22.652344 L 20 13.15625 L 3.75 13.15625 L 3.75 22.652344 C 3.75 25.792969 6.273438 28.351562 9.375 28.351562 Z M 15 16.953125 C 15 17.652344 15.5625 18.21875 16.25 18.21875 C 16.9375 18.21875 17.5 17.652344 17.5 16.953125 L 18.75 16.953125 C 18.75 18.351562 17.628906 19.484375 16.25 19.484375 C 14.871094 19.484375 13.75 18.351562 13.75 16.953125 Z M 15 22.019531 L 16.25 22.019531 C 16.25 23.414062 15.128906 24.550781 13.75 24.550781 L 8.75 24.550781 L 8.75 23.285156 L 13.75 23.285156 C 14.4375 23.285156 15 22.71875 15 22.019531 Z M 6.25 16.953125 C 6.25 17.652344 6.8125 18.21875 7.5 18.21875 C 8.1875 18.21875 8.75 17.652344 8.75 16.953125 L 10 16.953125 C 10 18.351562 8.878906 19.484375 7.5 19.484375 C 6.121094 19.484375 5 18.351562 5 16.953125 Z M 6.25 16.953125 "
            fill-opacity="1" fill-rule="nonzero"/>
    <g clip-path="url(#49b828463c)">
        <path
                d="M 21.25 10.621094 C 21.25 9.226562 20.128906 8.089844 18.75 8.089844 C 17.371094 8.089844 16.25 9.226562 16.25 10.621094 L 15 10.621094 C 15 9.582031 15.414062 8.640625 16.082031 7.957031 C 15.863281 7.429688 15.441406 7.007812 14.898438 6.824219 L 14.800781 6.789062 L 15.199219 5.589844 L 15.296875 5.625 C 16.089844 5.890625 16.742188 6.46875 17.128906 7.203125 C 17.621094 6.960938 18.167969 6.824219 18.75 6.824219 C 19.566406 6.824219 20.324219 7.09375 20.941406 7.546875 C 21.140625 7.125 21.25 6.667969 21.25 6.191406 C 21.25 4.445312 19.847656 3.023438 18.125 3.023438 C 17.910156 3.023438 17.703125 3.050781 17.496094 3.09375 C 17.488281 3.597656 17.386719 4.085938 17.1875 4.546875 L 16.042969 4.035156 C 16.179688 3.71875 16.25 3.378906 16.25 3.023438 C 16.25 1.628906 15.128906 0.492188 13.75 0.492188 C 13.304688 0.492188 12.878906 0.613281 12.5 0.839844 L 12.5 8.441406 C 12.871094 8.222656 13.292969 8.089844 13.75 8.089844 L 13.75 9.355469 C 13.0625 9.355469 12.5 9.925781 12.5 10.621094 L 12.5 11.886719 L 21.25 11.886719 Z M 21.25 10.621094 "
                fill-opacity="1" fill-rule="nonzero"/>
    </g>
    <path
            d="M 21.25 15.6875 L 21.875 15.6875 C 22.089844 15.6875 22.296875 15.710938 22.5 15.75 L 22.5 13.15625 L 21.25 13.15625 Z M 21.25 15.6875 "
            fill-opacity="1" fill-rule="nonzero"/>
    <path
            d="M 29.574219 16.675781 C 29.265625 15.929688 29.335938 15.101562 29.730469 14.429688 L 28.738281 13.425781 C 28.074219 13.828125 27.257812 13.894531 26.527344 13.585938 C 25.792969 13.28125 25.261719 12.644531 25.074219 11.886719 L 23.75 11.886719 L 23.75 15.109375 C 23.953125 15.074219 24.160156 15.054688 24.375 15.054688 C 26.445312 15.054688 28.125 16.757812 28.125 18.851562 C 28.125 20.949219 26.445312 22.652344 24.375 22.652344 C 23.585938 22.652344 22.859375 22.402344 22.253906 21.980469 C 22.128906 21.996094 22.003906 22.019531 21.875 22.019531 L 21.25 22.019531 L 21.25 22.652344 C 21.25 23.089844 21.203125 23.519531 21.128906 23.933594 C 21.496094 23.914062 21.871094 23.96875 22.222656 24.117188 C 22.957031 24.425781 23.488281 25.0625 23.675781 25.816406 L 25.078125 25.816406 C 25.265625 25.058594 25.796875 24.425781 26.527344 24.117188 C 27.265625 23.808594 28.078125 23.878906 28.742188 24.28125 L 29.730469 23.277344 C 29.335938 22.601562 29.265625 21.777344 29.574219 21.03125 C 29.878906 20.289062 30.503906 19.753906 31.25 19.5625 L 31.25 18.140625 C 30.5 17.949219 29.875 17.414062 29.574219 16.675781 Z M 29.574219 16.675781 "
            fill-opacity="1" fill-rule="nonzero"/>
    <path
            d="M 9.25 29.609375 L 9.585938 30.40625 L 10.367188 29.617188 L 9.375 29.617188 C 9.332031 29.617188 9.292969 29.609375 9.25 29.609375 Z M 9.25 29.609375 "
            fill-opacity="1" fill-rule="nonzero"/>
    <g clip-path="url(#78cb17c64c)">
        <path
                d="M 10.402344 31.371094 L 9.164062 32.625 L 7.820312 29.449219 C 5.304688 30.921875 3.75 33.628906 3.75 36.582031 L 3.75 37.214844 L 6.25 37.214844 L 6.25 33.414062 L 7.5 33.414062 L 7.5 37.214844 L 8.910156 37.214844 L 10.566406 31.617188 Z M 10.402344 31.371094 "
                fill-opacity="1" fill-rule="nonzero"/>
    </g>
    <g clip-path="url(#89a4d6d5f5)">
        <path
                d="M 15.929688 29.449219 L 14.585938 32.625 L 13.347656 31.371094 L 13.183594 31.617188 L 14.839844 37.214844 L 16.25 37.214844 L 16.25 33.414062 L 17.5 33.414062 L 17.5 37.214844 L 20 37.214844 L 20 36.582031 C 20 33.625 18.445312 30.921875 15.929688 29.449219 Z M 15.929688 29.449219 "
                fill-opacity="1" fill-rule="nonzero"/>
    </g>
    <path
            d="M 11.585938 30.882812 L 12.164062 30.882812 L 12.445312 30.457031 L 11.875 29.878906 L 11.304688 30.457031 Z M 11.585938 30.882812 "
            fill-opacity="1" fill-rule="nonzero"/>
    <g clip-path="url(#65a8fbdeb2)">
        <path
                d="M 11.714844 32.148438 L 10.214844 37.214844 L 13.535156 37.214844 L 12.035156 32.148438 Z M 11.714844 32.148438 "
                fill-opacity="1" fill-rule="nonzero"/>
    </g>
    <path
            d="M 13.382812 29.617188 L 14.164062 30.40625 L 14.5 29.609375 C 14.457031 29.609375 14.417969 29.617188 14.375 29.617188 Z M 13.382812 29.617188 "
            fill-opacity="1" fill-rule="nonzero"/>
    <g clip-path="url(#6c5f11f793)">
        <path
                d="M 37.5 18.851562 C 37.5 17.976562 36.90625 17.242188 36.105469 17.023438 C 35.816406 15.113281 35.078125 13.304688 33.945312 11.742188 C 34.359375 11.015625 34.269531 10.070312 33.65625 9.453125 C 33.042969 8.832031 32.109375 8.738281 31.394531 9.15625 C 29.851562 8.011719 28.066406 7.261719 26.179688 6.96875 C 25.964844 6.160156 25.242188 5.558594 24.375 5.558594 C 23.507812 5.558594 22.785156 6.160156 22.570312 6.96875 C 22.519531 6.976562 22.46875 6.984375 22.421875 6.992188 C 22.351562 7.367188 22.238281 7.734375 22.070312 8.089844 L 21.933594 8.382812 C 22.175781 8.324219 22.421875 8.277344 22.667969 8.234375 C 22.960938 8.894531 23.613281 9.355469 24.375 9.355469 C 25.136719 9.355469 25.789062 8.894531 26.082031 8.234375 C 27.707031 8.5 29.242188 9.144531 30.578125 10.121094 C 30.328125 10.800781 30.46875 11.59375 31.003906 12.136719 C 31.359375 12.496094 31.828125 12.695312 32.328125 12.695312 C 32.5625 12.695312 32.785156 12.648438 32.996094 12.566406 C 33.960938 13.921875 34.59375 15.476562 34.859375 17.125 C 34.207031 17.421875 33.75 18.082031 33.75 18.851562 C 33.75 19.621094 34.207031 20.285156 34.859375 20.582031 C 34.59375 22.230469 33.957031 23.792969 32.988281 25.148438 C 32.316406 24.90625 31.523438 25.042969 31.003906 25.570312 C 30.46875 26.113281 30.328125 26.90625 30.582031 27.582031 C 29.242188 28.5625 27.707031 29.207031 26.082031 29.472656 C 25.789062 28.8125 25.136719 28.351562 24.375 28.351562 C 23.621094 28.351562 22.96875 28.808594 22.671875 29.460938 C 21.292969 29.234375 19.964844 28.746094 18.773438 27.996094 C 18.429688 28.289062 18.058594 28.546875 17.660156 28.769531 C 19.128906 29.789062 20.8125 30.464844 22.570312 30.738281 C 22.785156 31.546875 23.507812 32.148438 24.375 32.148438 C 25.242188 32.148438 25.964844 31.546875 26.179688 30.738281 C 28.066406 30.445312 29.851562 29.695312 31.394531 28.546875 C 31.683594 28.71875 32.003906 28.808594 32.328125 28.808594 C 32.808594 28.808594 33.289062 28.625 33.65625 28.253906 C 34.269531 27.632812 34.359375 26.6875 33.945312 25.964844 C 35.078125 24.398438 35.816406 22.59375 36.105469 20.679688 C 36.90625 20.464844 37.5 19.730469 37.5 18.851562 Z M 37.5 18.851562 "
                fill-opacity="1" fill-rule="nonzero"/>
    </g>
</svg>