<svg xmlns="http://www.w3.org/2000/svg" xmlns:xlink="http://www.w3.org/1999/xlink" width="200" zoomAndPan="magnify" viewBox="0 0 150 37.5" height="50" preserveAspectRatio="xMidYMid meet" version="1.0"><defs><g/><clipPath id="848927af97"><path d="M 0.988281 0 L 149.011719 0 L 149.011719 37.007812 L 0.988281 37.007812 Z M 0.988281 0 " clip-rule="nonzero"/></clipPath></defs><g clip-path="url(#848927af97)"><path fill="#3b82f6" d="M -18.078125 3.59375 C -18.082031 2.964844 -18.058594 2.339844 -18.007812 1.71875 C -17.953125 1.09375 -17.867188 0.472656 -17.753906 -0.140625 C -17.636719 -0.757812 -17.492188 -1.367188 -17.320312 -1.96875 C -17.144531 -2.566406 -16.941406 -3.160156 -16.710938 -3.742188 C -16.480469 -4.324219 -16.21875 -4.890625 -15.929688 -5.445312 C -15.644531 -6.003906 -15.328125 -6.542969 -14.988281 -7.066406 C -14.648438 -7.59375 -14.285156 -8.097656 -13.894531 -8.585938 C -13.503906 -9.078125 -13.09375 -9.542969 -12.65625 -9.992188 C -12.21875 -10.441406 -11.765625 -10.867188 -11.285156 -11.269531 C -10.808594 -11.671875 -10.3125 -12.050781 -9.800781 -12.40625 C -9.285156 -12.761719 -8.753906 -13.085938 -8.207031 -13.390625 C -7.664062 -13.691406 -7.101562 -13.964844 -6.53125 -14.214844 C -5.957031 -14.460938 -5.371094 -14.675781 -4.777344 -14.867188 C -4.183594 -15.054688 -3.582031 -15.214844 -2.972656 -15.34375 C -2.363281 -15.476562 -1.746094 -15.574219 -1.125 -15.644531 C -0.507812 -15.714844 0.113281 -15.75 0.738281 -15.761719 C 44.808594 -16.195312 88.875 -16.191406 132.945312 -15.753906 C 133.570312 -15.746094 134.191406 -15.707031 134.8125 -15.636719 C 135.429688 -15.566406 136.046875 -15.46875 136.65625 -15.335938 C 137.265625 -15.207031 137.867188 -15.046875 138.460938 -14.859375 C 139.058594 -14.667969 139.640625 -14.453125 140.214844 -14.203125 C 140.785156 -13.957031 141.347656 -13.683594 141.894531 -13.382812 C 142.4375 -13.078125 142.96875 -12.75 143.484375 -12.398438 C 143.996094 -12.042969 144.492188 -11.664062 144.96875 -11.261719 C 145.449219 -10.859375 145.902344 -10.433594 146.339844 -9.984375 C 146.773438 -9.535156 147.1875 -9.066406 147.578125 -8.578125 C 147.96875 -8.089844 148.332031 -7.582031 148.671875 -7.058594 C 149.011719 -6.53125 149.328125 -5.992188 149.613281 -5.4375 C 149.902344 -4.882812 150.160156 -4.3125 150.394531 -3.730469 C 150.625 -3.148438 150.828125 -2.558594 151.003906 -1.957031 C 151.175781 -1.355469 151.320312 -0.746094 151.433594 -0.132812 C 151.550781 0.484375 151.632812 1.101562 151.6875 1.726562 C 151.742188 2.351562 151.765625 2.976562 151.757812 3.601562 L 151.269531 41.875 C 151.261719 42.503906 151.226562 43.128906 151.15625 43.753906 C 151.089844 44.375 150.988281 44.996094 150.859375 45.609375 C 150.730469 46.222656 150.574219 46.828125 150.386719 47.425781 C 150.195312 48.023438 149.980469 48.613281 149.734375 49.1875 C 149.488281 49.765625 149.214844 50.328125 148.914062 50.878906 C 148.613281 51.429688 148.285156 51.960938 147.933594 52.480469 C 147.578125 52.996094 147.203125 53.496094 146.800781 53.976562 C 146.398438 54.457031 145.972656 54.914062 145.527344 55.355469 C 145.078125 55.792969 144.613281 56.207031 144.125 56.597656 C 143.636719 56.992188 143.128906 57.359375 142.605469 57.699219 C 142.082031 58.042969 141.542969 58.359375 140.988281 58.648438 C 140.433594 58.9375 139.867188 59.195312 139.289062 59.429688 C 138.707031 59.664062 138.117188 59.867188 137.515625 60.039062 C 136.917969 60.214844 136.308594 60.359375 135.695312 60.476562 C 135.082031 60.589844 134.460938 60.671875 133.839844 60.726562 C 133.21875 60.78125 132.59375 60.804688 131.96875 60.796875 C 88.546875 60.363281 45.128906 60.359375 1.707031 60.789062 C 1.082031 60.796875 0.457031 60.773438 -0.164062 60.71875 C -0.789062 60.664062 -1.40625 60.582031 -2.019531 60.46875 C -2.632812 60.351562 -3.242188 60.207031 -3.839844 60.03125 C -4.441406 59.859375 -5.03125 59.65625 -5.613281 59.421875 C -6.191406 59.1875 -6.757812 58.925781 -7.3125 58.640625 C -7.867188 58.351562 -8.40625 58.035156 -8.929688 57.691406 C -9.453125 57.351562 -9.960938 56.984375 -10.449219 56.589844 C -10.933594 56.199219 -11.402344 55.785156 -11.851562 55.34375 C -12.296875 54.90625 -12.722656 54.449219 -13.125 53.96875 C -13.523438 53.488281 -13.902344 52.988281 -14.257812 52.46875 C -14.609375 51.953125 -14.9375 51.417969 -15.238281 50.871094 C -15.539062 50.320312 -15.8125 49.757812 -16.058594 49.179688 C -16.304688 48.601562 -16.519531 48.015625 -16.707031 47.417969 C -16.898438 46.820312 -17.054688 46.214844 -17.183594 45.597656 C -17.3125 44.984375 -17.410156 44.367188 -17.480469 43.742188 C -17.546875 43.117188 -17.585938 42.492188 -17.59375 41.867188 Z M -18.078125 3.59375 " fill-opacity="1" fill-rule="nonzero"/></g><g fill="#eff6ff" fill-opacity="1"><g transform="translate(0.939038, 32.294534)"><g><path d="M 1.390625 1.035156 L 12.488281 0.9375 L 12.464844 -1.875 L 4.175781 -1.800781 L 3.957031 -26.140625 L 1.148438 -26.113281 Z M 1.390625 1.035156 "/></g></g></g><g fill="#eff6ff" fill-opacity="1"><g transform="translate(13.405276, 32.185404)"><g><path d="M 1.367188 -1.628906 L 4.179688 -1.652344 L 3.992188 -26.136719 L 1.183594 -26.113281 Z M 1.367188 -1.628906 "/></g></g></g><g fill="#eff6ff" fill-opacity="1"><g transform="translate(19.010423, 32.139128)"><g><path d="M 1.386719 1.039062 L 4.199219 1.023438 L 4.085938 -17.746094 L 10.574219 -0.109375 L 13.8125 -0.128906 L 13.65625 -26.1875 L 10.847656 -26.167969 L 10.96875 -5.925781 L 4.042969 -24.792969 L 1.234375 -24.777344 Z M 1.386719 1.039062 "/></g></g></g><g fill="#eff6ff" fill-opacity="1"><g transform="translate(34.179726, 32.045204)"><g><path d="M 1.066406 -8.246094 C 2.417969 -2.820312 5.910156 0.835938 11.148438 0.246094 C 16.386719 -0.292969 18.652344 -5.683594 18.636719 -10.925781 L 18.632812 -12.304688 L 8.960938 -12.273438 L 8.972656 -9.460938 L 15.78125 -9.484375 C 15.269531 -5.957031 14.042969 -2.90625 10.851562 -2.5625 C 7.089844 -2.121094 4.652344 -5.160156 3.875 -8.875 C 2.378906 -14.917969 4.875 -22.691406 10.636719 -23.28125 C 13.734375 -23.625 15.738281 -22.109375 15.789062 -22.0625 L 17.589844 -24.257812 C 17.445312 -24.351562 14.628906 -26.582031 10.34375 -26.140625 C 2.820312 -25.351562 -0.769531 -16.097656 1.066406 -8.246094 Z M 1.066406 -8.246094 "/></g></g></g><g fill="#eff6ff" fill-opacity="1"><g transform="translate(53.537279, 31.978559)"><g><path d="M 10.195312 1.042969 L 10.289062 1.042969 C 16.054688 1.042969 19.71875 -6.105469 19.574219 -12.726562 C 19.425781 -19.539062 16.707031 -26.253906 10.851562 -26.25 C 4.5625 -26.25 0.5625 -19.625 0.710938 -12.480469 C 0.808594 -5.527344 3.8125 1.046875 10.195312 1.042969 Z M 10.242188 -1.765625 C 5.8125 -1.667969 3.617188 -7.003906 3.566406 -12.53125 C 3.46875 -17.914062 6.136719 -23.390625 10.851562 -23.394531 C 14.710938 -23.394531 16.664062 -17.964844 16.761719 -12.679688 C 16.8125 -7.722656 14.433594 -1.863281 10.242188 -1.765625 Z M 10.242188 -1.765625 "/></g></g></g><g fill="#eff6ff" fill-opacity="1"><g transform="translate(73.751683, 31.969921)"><g><path d="M 16.425781 3.28125 L 18.8125 1.8125 L 16.34375 -2.148438 C 16.632812 -2.480469 16.917969 -2.859375 17.109375 -3.195312 C 18.785156 -5.761719 19.648438 -9.09375 19.660156 -12.667969 C 19.535156 -19.480469 16.695312 -26.203125 10.929688 -26.21875 C 4.640625 -26.234375 0.671875 -19.625 0.746094 -12.476562 C 0.824219 -5.523438 3.808594 1.058594 10.191406 1.074219 L 10.285156 1.074219 C 11.667969 1.078125 12.953125 0.652344 14.195312 -0.152344 C 14.195312 -0.152344 14.195312 -0.199219 14.242188 -0.199219 Z M 10.246094 -1.734375 C 5.578125 -1.746094 3.640625 -7.136719 3.605469 -12.519531 C 3.476562 -17.804688 6.207031 -23.371094 10.921875 -23.359375 C 14.78125 -23.351562 16.71875 -17.914062 16.800781 -12.625 C 16.792969 -9.625 16.117188 -6.863281 14.730469 -4.773438 L 12.171875 -8.875 L 9.785156 -7.359375 L 12.773438 -2.585938 C 12.007812 -2.0625 11.152344 -1.78125 10.246094 -1.734375 Z M 10.246094 -1.734375 "/></g></g></g><g fill="#eff6ff" fill-opacity="1"><g transform="translate(94.01542, 32.024883)"><g><path d="M 9.1875 1.097656 L 9.234375 1.097656 C 15 1.128906 16.511719 -5.671875 16.554688 -12.914062 L 16.578125 -26.0625 L 13.71875 -26.078125 L 13.695312 -12.929688 C 13.710938 -7.117188 12.777344 -1.738281 9.25 -1.757812 C 5.488281 -1.78125 4.566406 -7.40625 4.449219 -12.21875 C 4.371094 -15.078125 4.328125 -24.699219 4.328125 -24.792969 L 1.519531 -24.808594 C 1.515625 -24.382812 1.558594 -15.042969 1.589844 -12.136719 C 1.746094 -5.707031 3.328125 1.066406 9.1875 1.097656 Z M 9.1875 1.097656 "/></g></g></g><g fill="#eff6ff" fill-opacity="1"><g transform="translate(111.860507, 32.128418)"><g><path d="M 1.394531 -1.609375 L 4.203125 -1.589844 L 4.382812 -26.074219 L 1.570312 -26.09375 Z M 1.394531 -1.609375 "/></g></g></g><g fill="#eff6ff" fill-opacity="1"><g transform="translate(117.466215, 32.165781)"><g><path d="M 0.394531 -1.664062 L 11.542969 -1.566406 L 11.566406 -4.425781 L 3.707031 -4.492188 L 14.355469 -23.453125 L 14.402344 -23.453125 L 14.425781 -26.3125 L 0.613281 -26.433594 L 0.589844 -23.574219 L 11.066406 -23.484375 L 0.421875 -4.523438 Z M 0.394531 -1.664062 "/></g></g></g><g fill="#eff6ff" fill-opacity="1"><g transform="translate(132.05251, 31.103186)"><g><path d="M 1.261719 0.730469 C 1.617188 0.730469 1.910156 0.457031 1.910156 0.101562 C 1.910156 -0.253906 1.613281 -0.550781 1.257812 -0.546875 C 0.902344 -0.546875 0.609375 -0.253906 0.609375 0.105469 C 0.609375 0.460938 0.902344 0.734375 1.261719 0.730469 Z M 1.261719 0.730469 "/></g></g></g><g fill="#eff6ff" fill-opacity="1"><g transform="translate(134.567501, 31.0983)"><g><path d="M 0.609375 -0.714844 L 1.847656 -0.714844 L 1.835938 -11.503906 L 0.597656 -11.503906 Z M 0.609375 -0.714844 "/></g></g></g><g fill="#eff6ff" fill-opacity="1"><g transform="translate(137.035658, 31.092448)"><g><path d="M 4.492188 0.464844 L 4.535156 0.464844 C 7.074219 0.46875 8.691406 -2.679688 8.632812 -5.597656 C 8.570312 -8.597656 7.378906 -11.558594 4.796875 -11.5625 C 2.023438 -11.5625 0.257812 -8.648438 0.320312 -5.5 C 0.359375 -2.433594 1.679688 0.464844 4.492188 0.464844 Z M 4.511719 -0.773438 C 2.5625 -0.734375 1.597656 -3.085938 1.578125 -5.519531 C 1.539062 -7.890625 2.714844 -10.304688 4.792969 -10.300781 C 6.496094 -10.300781 7.351562 -7.90625 7.394531 -5.578125 C 7.414062 -3.394531 6.359375 -0.8125 4.511719 -0.773438 Z M 4.511719 -0.773438 "/></g></g></g></svg>