<svg xmlns="http://www.w3.org/2000/svg" width="50" zoomAndPan="magnify"
     viewBox="0 0 37.5 37.499999" height="50" preserveAspectRatio="xMidYMid meet" version="1.0">
    <defs>
        <clipPath id="d87e6dfe16">
            <path d="M 0 7.242188 L 37.007812 7.242188 L 37.007812 30.492188 L 0 30.492188 Z M 0 7.242188 "
                  clip-rule="nonzero"/>
        </clipPath>
    </defs>
    <path
          d="M 26.25 22.046875 C 26.1875 22.046875 26.121094 22.050781 26.058594 22.0625 C 25.253906 22.167969 24.6875 22.917969 24.792969 23.730469 C 24.890625 24.464844 25.519531 25.019531 26.253906 25.019531 C 26.316406 25.019531 26.382812 25.015625 26.445312 25.007812 C 27.25 24.898438 27.820312 24.148438 27.710938 23.335938 C 27.613281 22.601562 26.984375 22.046875 26.25 22.046875 "
          />
    <path
          d="M 28.265625 13.113281 C 27.613281 12.675781 26.746094 12.445312 25.761719 12.445312 C 25.472656 12.445312 25.175781 12.464844 24.878906 12.503906 C 23.894531 12.636719 22.941406 13.117188 22.261719 13.820312 C 21.574219 14.539062 21.238281 15.410156 21.34375 16.214844 C 21.425781 16.8125 21.871094 17.199219 22.476562 17.199219 C 22.542969 17.199219 22.609375 17.191406 22.671875 17.183594 C 23.488281 17.074219 23.664062 16.507812 23.832031 15.960938 C 24.027344 15.339844 24.207031 14.753906 25.257812 14.609375 C 25.363281 14.59375 25.46875 14.589844 25.570312 14.589844 C 26.328125 14.589844 26.796875 14.992188 26.890625 15.722656 C 26.984375 16.4375 26.425781 17.011719 25.832031 17.613281 C 25.164062 18.292969 24.410156 19.0625 24.554688 20.152344 C 24.589844 20.433594 24.714844 20.695312 24.898438 20.890625 C 25.113281 21.113281 25.390625 21.230469 25.703125 21.230469 C 25.757812 21.230469 25.820312 21.230469 25.878906 21.222656 C 26.730469 21.105469 26.84375 20.609375 26.957031 20.125 C 27 19.945312 27.042969 19.753906 27.132812 19.585938 C 27.246094 19.347656 27.542969 19.066406 27.886719 18.746094 C 28.703125 17.976562 29.820312 16.921875 29.613281 15.355469 C 29.484375 14.375 29.03125 13.621094 28.265625 13.113281 "
          />
    <g clip-path="url(#d87e6dfe16)">
        <path
              d="M 35.882812 26.523438 C 35.855469 26.5625 35.789062 26.628906 35.683594 26.640625 L 18.617188 28.941406 C 18.453125 28.964844 18.300781 28.84375 18.277344 28.679688 L 16 11.441406 C 15.980469 11.273438 16.09375 11.121094 16.257812 11.097656 L 33.324219 8.796875 C 33.34375 8.796875 33.351562 8.796875 33.367188 8.796875 C 33.515625 8.796875 33.644531 8.90625 33.664062 9.058594 L 35.945312 26.300781 C 35.957031 26.410156 35.910156 26.488281 35.882812 26.523438 Z M 14.824219 27.679688 C 14.808594 27.804688 14.6875 27.898438 14.5625 27.878906 L 1.34375 25.949219 C 1.257812 25.941406 1.210938 25.886719 1.1875 25.859375 C 1.164062 25.828125 1.132812 25.769531 1.144531 25.683594 L 3.050781 12.328125 C 3.070312 12.210938 3.167969 12.125 3.28125 12.125 C 3.296875 12.125 3.304688 12.128906 3.316406 12.128906 L 14.832031 13.808594 L 15.78125 20.996094 Z M 37.398438 26.105469 L 35.121094 8.859375 C 35.003906 7.976562 34.253906 7.308594 33.367188 7.308594 C 33.289062 7.308594 33.210938 7.316406 33.132812 7.328125 L 16.066406 9.625 C 15.097656 9.757812 14.414062 10.660156 14.546875 11.636719 L 14.675781 12.621094 L 3.480469 10.988281 C 3.414062 10.980469 3.347656 10.972656 3.28125 10.972656 C 2.605469 10.972656 2.023438 11.488281 1.921875 12.164062 L 0.0117188 25.519531 C -0.0351562 25.886719 0.0546875 26.25 0.273438 26.546875 C 0.496094 26.847656 0.8125 27.035156 1.179688 27.089844 L 14.394531 29.019531 C 14.460938 29.03125 14.527344 29.035156 14.59375 29.035156 C 15.273438 29.035156 15.859375 28.523438 15.953125 27.847656 L 16.332031 25.183594 L 16.820312 28.875 C 16.9375 29.761719 17.691406 30.429688 18.574219 30.429688 C 18.65625 30.429688 18.734375 30.421875 18.808594 30.414062 L 35.878906 28.109375 C 36.34375 28.050781 36.765625 27.804688 37.050781 27.425781 C 37.339844 27.046875 37.460938 26.578125 37.398438 26.105469 "
              />
    </g>
    <path
          d="M 11.78125 16 C 11.257812 15.515625 10.480469 15.175781 9.597656 15.046875 C 9.433594 15.023438 9.269531 15.011719 9.105469 15.011719 C 8.410156 15.011719 7.726562 15.21875 7.179688 15.589844 C 6.617188 15.976562 6.265625 16.5 6.179688 17.066406 C 6.144531 17.332031 6.207031 17.570312 6.367188 17.753906 C 6.511719 17.921875 6.722656 18.035156 6.972656 18.070312 C 7.035156 18.078125 7.09375 18.085938 7.152344 18.085938 C 7.652344 18.085938 7.875 17.738281 8.089844 17.40625 C 8.335938 17.03125 8.5625 16.679688 9.167969 16.679688 C 9.253906 16.679688 9.34375 16.683594 9.4375 16.699219 C 10.15625 16.804688 10.515625 17.234375 10.421875 17.878906 C 10.347656 18.433594 9.808594 18.742188 9.238281 19.066406 C 8.601562 19.429688 7.875 19.84375 7.753906 20.6875 C 7.71875 20.921875 7.765625 21.167969 7.882812 21.359375 C 7.980469 21.515625 8.167969 21.714844 8.519531 21.769531 C 8.59375 21.777344 8.664062 21.78125 8.726562 21.78125 C 9.222656 21.78125 9.390625 21.476562 9.554688 21.179688 C 9.621094 21.054688 9.691406 20.921875 9.792969 20.8125 C 9.933594 20.660156 10.210938 20.515625 10.53125 20.351562 C 11.304688 19.945312 12.359375 19.398438 12.53125 18.1875 C 12.65625 17.328125 12.394531 16.566406 11.78125 16 "
          />
    <path
          d="M 8.476562 22.429688 C 8.421875 22.421875 8.367188 22.421875 8.3125 22.421875 C 7.75 22.421875 7.265625 22.847656 7.179688 23.410156 C 7.089844 24.039062 7.527344 24.625 8.148438 24.714844 C 8.199219 24.722656 8.257812 24.726562 8.3125 24.726562 C 8.875 24.726562 9.363281 24.300781 9.445312 23.738281 C 9.53125 23.109375 9.097656 22.523438 8.476562 22.429688 "
          />
</svg>