<svg xmlns="http://www.w3.org/2000/svg" width="50" zoomAndPan="magnify"
     viewBox="0 0 37.5 37.499999" height="50" preserveAspectRatio="xMidYMid meet" version="1.0">
    <defs>
        <clipPath id="794f991a33">
            <path d="M 3.574219 0.0742188 L 33.574219 0.0742188 L 33.574219 37.007812 L 3.574219 37.007812 Z M 3.574219 0.0742188 "
                  clip-rule="nonzero"/>
        </clipPath>
    </defs>
    <path fill="#d1d5db"
          d="M 14.203125 9.328125 L 13.003906 8.148438 C 13.105469 7.886719 13.164062 7.617188 13.175781 7.335938 L 13.175781 4.917969 C 13.175781 4.597656 13.113281 4.289062 12.992188 3.992188 C 12.871094 3.699219 12.699219 3.4375 12.472656 3.210938 C 12.25 2.980469 11.988281 2.808594 11.695312 2.683594 C 11.402344 2.5625 11.09375 2.5 10.777344 2.5 C 10.457031 2.5 10.152344 2.5625 9.859375 2.683594 C 9.5625 2.808594 9.304688 2.980469 9.078125 3.210938 C 8.855469 3.4375 8.679688 3.699219 8.558594 3.992188 C 8.4375 4.289062 8.375 4.597656 8.375 4.917969 L 8.375 7.335938 C 8.375 7.660156 8.4375 7.964844 8.558594 8.261719 C 8.679688 8.558594 8.855469 8.820312 9.078125 9.046875 C 9.304688 9.273438 9.5625 9.449219 9.859375 9.570312 C 10.152344 9.695312 10.457031 9.757812 10.777344 9.757812 C 11.371094 9.753906 11.890625 9.550781 12.335938 9.152344 L 13.351562 10.179688 Z M 11.976562 7.089844 L 11.191406 6.320312 L 10.355469 7.164062 L 11.488281 8.304688 C 11.277344 8.464844 11.039062 8.546875 10.777344 8.546875 C 10.617188 8.546875 10.464844 8.515625 10.316406 8.453125 C 10.167969 8.394531 10.039062 8.304688 9.925781 8.191406 C 9.816406 8.078125 9.726562 7.949219 9.667969 7.800781 C 9.605469 7.652344 9.574219 7.496094 9.574219 7.335938 L 9.574219 4.917969 C 9.574219 4.757812 9.605469 4.605469 9.667969 4.457031 C 9.726562 4.308594 9.816406 4.175781 9.925781 4.0625 C 10.039062 3.949219 10.167969 3.863281 10.316406 3.800781 C 10.464844 3.742188 10.617188 3.710938 10.777344 3.710938 C 10.933594 3.710938 11.089844 3.742188 11.234375 3.800781 C 11.382812 3.863281 11.511719 3.949219 11.625 4.0625 C 11.738281 4.175781 11.824219 4.308594 11.882812 4.457031 C 11.945312 4.605469 11.976562 4.757812 11.976562 4.917969 Z M 11.976562 7.089844 "
          fill-opacity="1" fill-rule="nonzero"/>
    <g clip-path="url(#794f991a33)">
        <path fill="#d1d5db"
              d="M 33.402344 3.886719 L 29.800781 0.257812 C 29.683594 0.140625 29.542969 0.0820312 29.375 0.0820312 L 4.175781 0.0820312 C 4.011719 0.0820312 3.867188 0.140625 3.75 0.257812 C 3.632812 0.378906 3.574219 0.519531 3.574219 0.6875 L 3.574219 36.964844 C 3.574219 37.128906 3.632812 37.273438 3.75 37.390625 C 3.867188 37.507812 4.011719 37.566406 4.175781 37.566406 L 32.976562 37.566406 C 33.140625 37.566406 33.28125 37.507812 33.398438 37.390625 C 33.515625 37.273438 33.574219 37.128906 33.574219 36.964844 L 33.574219 4.316406 C 33.578125 4.148438 33.519531 4.003906 33.402344 3.886719 Z M 29.976562 2.144531 L 31.53125 3.710938 L 29.976562 3.710938 Z M 32.375 36.359375 L 4.777344 36.359375 L 4.777344 1.292969 L 28.777344 1.292969 L 28.777344 4.316406 C 28.777344 4.480469 28.835938 4.625 28.953125 4.742188 C 29.070312 4.859375 29.210938 4.917969 29.375 4.917969 L 32.375 4.917969 Z M 32.375 36.359375 "
              fill-opacity="1" fill-rule="nonzero"/>
    </g>
    <path fill="#d1d5db"
          d="M 11.375 11.570312 L 7.777344 11.570312 C 7.609375 11.570312 7.46875 11.628906 7.351562 11.746094 C 7.234375 11.863281 7.175781 12.007812 7.175781 12.175781 L 7.175781 15.800781 C 7.175781 15.96875 7.234375 16.113281 7.351562 16.230469 C 7.46875 16.347656 7.609375 16.40625 7.777344 16.40625 L 11.375 16.40625 C 11.542969 16.40625 11.683594 16.347656 11.800781 16.230469 C 11.917969 16.113281 11.976562 15.96875 11.976562 15.800781 L 11.976562 12.175781 C 11.976562 12.007812 11.917969 11.863281 11.800781 11.746094 C 11.683594 11.628906 11.542969 11.570312 11.375 11.570312 Z M 10.777344 15.199219 L 8.375 15.199219 L 8.375 12.777344 L 10.777344 12.777344 Z M 10.777344 15.199219 "
          fill-opacity="1" fill-rule="nonzero"/>
    <path fill="#d1d5db"
          d="M 11.375 17.617188 L 7.777344 17.617188 C 7.609375 17.617188 7.46875 17.675781 7.351562 17.792969 C 7.234375 17.910156 7.175781 18.054688 7.175781 18.21875 L 7.175781 21.847656 C 7.175781 22.015625 7.234375 22.15625 7.351562 22.277344 C 7.46875 22.394531 7.609375 22.453125 7.777344 22.453125 L 11.375 22.453125 C 11.542969 22.453125 11.683594 22.394531 11.800781 22.277344 C 11.917969 22.15625 11.976562 22.015625 11.976562 21.847656 L 11.976562 18.21875 C 11.976562 18.054688 11.917969 17.910156 11.800781 17.792969 C 11.683594 17.675781 11.542969 17.617188 11.375 17.617188 Z M 10.777344 21.242188 L 8.375 21.242188 L 8.375 18.824219 L 10.777344 18.824219 Z M 10.777344 21.242188 "
          fill-opacity="1" fill-rule="nonzero"/>
    <path fill="#d1d5db"
          d="M 11.375 23.660156 L 7.777344 23.660156 C 7.609375 23.660156 7.46875 23.722656 7.351562 23.839844 C 7.234375 23.957031 7.175781 24.097656 7.175781 24.265625 L 7.175781 27.894531 C 7.175781 28.0625 7.234375 28.203125 7.351562 28.320312 C 7.46875 28.441406 7.609375 28.5 7.777344 28.5 L 11.375 28.5 C 11.542969 28.5 11.683594 28.441406 11.800781 28.320312 C 11.917969 28.203125 11.976562 28.0625 11.976562 27.894531 L 11.976562 24.265625 C 11.976562 24.097656 11.917969 23.957031 11.800781 23.839844 C 11.683594 23.722656 11.542969 23.660156 11.375 23.660156 Z M 10.777344 27.289062 L 8.375 27.289062 L 8.375 24.871094 L 10.777344 24.871094 Z M 10.777344 27.289062 "
          fill-opacity="1" fill-rule="nonzero"/>
    <path fill="#d1d5db"
          d="M 13.175781 12.175781 L 29.976562 12.175781 L 29.976562 13.382812 L 13.175781 13.382812 Z M 13.175781 12.175781 "
          fill-opacity="1" fill-rule="nonzero"/>
    <path fill="#d1d5db"
          d="M 13.175781 14.59375 L 27.574219 14.59375 L 27.574219 15.800781 L 13.175781 15.800781 Z M 13.175781 14.59375 "
          fill-opacity="1" fill-rule="nonzero"/>
    <path fill="#d1d5db"
          d="M 28.777344 14.59375 L 29.976562 14.59375 L 29.976562 15.800781 L 28.777344 15.800781 Z M 28.777344 14.59375 "
          fill-opacity="1" fill-rule="nonzero"/>
    <path fill="#d1d5db"
          d="M 13.175781 18.21875 L 29.976562 18.21875 L 29.976562 19.429688 L 13.175781 19.429688 Z M 13.175781 18.21875 "
          fill-opacity="1" fill-rule="nonzero"/>
    <path fill="#d1d5db"
          d="M 13.175781 20.640625 L 27.574219 20.640625 L 27.574219 21.847656 L 13.175781 21.847656 Z M 13.175781 20.640625 "
          fill-opacity="1" fill-rule="nonzero"/>
    <path fill="#d1d5db"
          d="M 28.777344 20.640625 L 29.976562 20.640625 L 29.976562 21.847656 L 28.777344 21.847656 Z M 28.777344 20.640625 "
          fill-opacity="1" fill-rule="nonzero"/>
    <path fill="#d1d5db"
          d="M 13.175781 24.265625 L 29.976562 24.265625 L 29.976562 25.476562 L 13.175781 25.476562 Z M 13.175781 24.265625 "
          fill-opacity="1" fill-rule="nonzero"/>
    <path fill="#d1d5db"
          d="M 13.175781 26.683594 L 27.574219 26.683594 L 27.574219 27.894531 L 13.175781 27.894531 Z M 13.175781 26.683594 "
          fill-opacity="1" fill-rule="nonzero"/>
    <path fill="#d1d5db"
          d="M 28.777344 26.683594 L 29.976562 26.683594 L 29.976562 27.894531 L 28.777344 27.894531 Z M 28.777344 26.683594 "
          fill-opacity="1" fill-rule="nonzero"/>
    <path fill="#d1d5db"
          d="M 11.375 29.707031 L 7.777344 29.707031 C 7.609375 29.707031 7.46875 29.765625 7.351562 29.886719 C 7.234375 30.003906 7.175781 30.144531 7.175781 30.3125 L 7.175781 33.941406 C 7.175781 34.105469 7.234375 34.25 7.351562 34.367188 C 7.46875 34.484375 7.609375 34.542969 7.777344 34.542969 L 11.375 34.542969 C 11.542969 34.542969 11.683594 34.484375 11.800781 34.367188 C 11.917969 34.25 11.976562 34.105469 11.976562 33.941406 L 11.976562 30.3125 C 11.976562 30.144531 11.917969 30.003906 11.800781 29.886719 C 11.683594 29.765625 11.542969 29.707031 11.375 29.707031 Z M 10.777344 33.335938 L 8.375 33.335938 L 8.375 30.917969 L 10.777344 30.917969 Z M 10.777344 33.335938 "
          fill-opacity="1" fill-rule="nonzero"/>
    <path fill="#d1d5db"
          d="M 13.175781 30.3125 L 29.976562 30.3125 L 29.976562 31.523438 L 13.175781 31.523438 Z M 13.175781 30.3125 "
          fill-opacity="1" fill-rule="nonzero"/>
    <path fill="#d1d5db"
          d="M 13.175781 32.730469 L 27.574219 32.730469 L 27.574219 33.941406 L 13.175781 33.941406 Z M 13.175781 32.730469 "
          fill-opacity="1" fill-rule="nonzero"/>
    <path fill="#d1d5db"
          d="M 28.777344 32.730469 L 29.976562 32.730469 L 29.976562 33.941406 L 28.777344 33.941406 Z M 28.777344 32.730469 "
          fill-opacity="1" fill-rule="nonzero"/>
    <path fill="#d1d5db"
          d="M 16.777344 9.757812 C 17.09375 9.757812 17.402344 9.695312 17.695312 9.570312 C 17.988281 9.449219 18.25 9.273438 18.472656 9.046875 C 18.699219 8.820312 18.871094 8.558594 18.992188 8.261719 C 19.113281 7.964844 19.175781 7.660156 19.175781 7.335938 L 19.175781 2.5 L 17.976562 2.5 L 17.976562 7.335938 C 17.976562 7.496094 17.945312 7.652344 17.882812 7.800781 C 17.824219 7.949219 17.738281 8.078125 17.625 8.191406 C 17.511719 8.304688 17.382812 8.394531 17.234375 8.453125 C 17.089844 8.515625 16.933594 8.546875 16.777344 8.546875 C 16.617188 8.546875 16.464844 8.515625 16.316406 8.453125 C 16.167969 8.394531 16.039062 8.304688 15.925781 8.191406 C 15.816406 8.078125 15.726562 7.949219 15.667969 7.800781 C 15.605469 7.652344 15.574219 7.496094 15.574219 7.335938 L 15.574219 2.5 L 14.375 2.5 L 14.375 7.335938 C 14.375 7.660156 14.4375 7.964844 14.558594 8.261719 C 14.679688 8.558594 14.855469 8.820312 15.078125 9.046875 C 15.304688 9.273438 15.5625 9.449219 15.859375 9.570312 C 16.152344 9.695312 16.457031 9.757812 16.777344 9.757812 Z M 16.777344 9.757812 "
          fill-opacity="1" fill-rule="nonzero"/>
    <path fill="#d1d5db" d="M 20.375 2.5 L 21.574219 2.5 L 21.574219 9.757812 L 20.375 9.757812 Z M 20.375 2.5 "
          fill-opacity="1" fill-rule="nonzero"/>
    <path fill="#d1d5db"
          d="M 22.84375 8.878906 C 22.796875 8.972656 22.773438 9.070312 22.777344 9.175781 C 22.78125 9.28125 22.8125 9.378906 22.867188 9.46875 C 22.921875 9.558594 22.992188 9.628906 23.085938 9.679688 C 23.175781 9.730469 23.273438 9.753906 23.375 9.757812 L 26.976562 9.757812 L 26.976562 8.546875 L 24.347656 8.546875 L 26.910156 3.378906 C 26.957031 3.285156 26.976562 3.183594 26.972656 3.078125 C 26.96875 2.976562 26.941406 2.878906 26.886719 2.789062 C 26.832031 2.699219 26.757812 2.628906 26.667969 2.578125 C 26.578125 2.527344 26.480469 2.5 26.375 2.5 L 22.777344 2.5 L 22.777344 3.710938 L 25.402344 3.710938 Z M 22.84375 8.878906 "
          fill-opacity="1" fill-rule="nonzero"/>
</svg>