<svg xmlns="http://www.w3.org/2000/svg" width="200" zoomAndPan="magnify"
     viewBox="0 0 150 37.5" height="50"  preserveAspectRatio="xMidYMid meet" version="1.0">
    <defs>
        <g/>
    </defs>
    <g fill="#eff6ff" fill-opacity="1">
        <g transform="translate(0.995806, 27.395267)">
            <g>
                <path d="M 5.71875 -17.46875 L 5.71875 -2.890625 L 13.578125 -2.890625 L 13.578125 0 L 2.265625 0 L 2.265625 -17.46875 Z M 5.71875 -17.46875 "/>
            </g>
        </g>
    </g>
    <g fill="#eff6ff" fill-opacity="1">
        <g transform="translate(15.143024, 27.395267)">
            <g>
                <path d="M 3.546875 -14.75 C 2.953125 -14.75 2.46875 -14.929688 2.09375 -15.296875 C 1.71875 -15.660156 1.53125 -16.128906 1.53125 -16.703125 C 1.53125 -17.265625 1.71875 -17.726562 2.09375 -18.09375 C 2.46875 -18.457031 2.953125 -18.640625 3.546875 -18.640625 C 3.941406 -18.640625 4.296875 -18.554688 4.609375 -18.390625 C 4.921875 -18.222656 5.160156 -17.992188 5.328125 -17.703125 C 5.503906 -17.410156 5.59375 -17.078125 5.59375 -16.703125 C 5.59375 -16.328125 5.503906 -15.988281 5.328125 -15.6875 C 5.160156 -15.394531 4.921875 -15.164062 4.609375 -15 C 4.296875 -14.832031 3.941406 -14.75 3.546875 -14.75 Z M 1.90625 0 L 1.90625 -13.171875 L 5.203125 -13.171875 L 5.203125 0 Z M 1.90625 0 "/>
            </g>
        </g>
    </g>
    <g fill="#eff6ff" fill-opacity="1">
        <g transform="translate(22.24053, 27.395267)">
            <g>
                <path d="M 1.90625 0 L 1.90625 -13.171875 L 5.078125 -13.171875 L 5.078125 -11.25 L 5.328125 -11.1875 C 6.148438 -12.675781 7.476562 -13.421875 9.3125 -13.421875 C 10.832031 -13.421875 11.945312 -13.003906 12.65625 -12.171875 C 13.375 -11.347656 13.734375 -10.144531 13.734375 -8.5625 L 13.734375 0 L 10.4375 0 L 10.4375 -8.15625 C 10.4375 -9.03125 10.257812 -9.660156 9.90625 -10.046875 C 9.550781 -10.441406 8.988281 -10.640625 8.21875 -10.640625 C 7.269531 -10.640625 6.53125 -10.332031 6 -9.71875 C 5.46875 -9.101562 5.203125 -8.140625 5.203125 -6.828125 L 5.203125 0 Z M 1.90625 0 "/>
            </g>
        </g>
    </g>
    <g fill="#eff6ff" fill-opacity="1">
        <g transform="translate(37.678204, 27.395267)">
            <g>
                <path d="M 6.828125 5.59375 C 4.660156 5.59375 3.054688 5.273438 2.015625 4.640625 C 0.984375 4.003906 0.46875 3.113281 0.46875 1.96875 C 0.46875 1.28125 0.6875 0.710938 1.125 0.265625 C 1.570312 -0.171875 2.207031 -0.46875 3.03125 -0.625 L 3.03125 -0.875 C 2.582031 -1.144531 2.257812 -1.441406 2.0625 -1.765625 C 1.875 -2.097656 1.78125 -2.484375 1.78125 -2.921875 C 1.78125 -3.984375 2.46875 -4.695312 3.84375 -5.0625 L 3.84375 -5.3125 C 3.132812 -5.71875 2.597656 -6.222656 2.234375 -6.828125 C 1.878906 -7.429688 1.703125 -8.160156 1.703125 -9.015625 C 1.703125 -9.890625 1.90625 -10.65625 2.3125 -11.3125 C 2.71875 -11.976562 3.304688 -12.492188 4.078125 -12.859375 C 4.859375 -13.234375 5.789062 -13.421875 6.875 -13.421875 C 7.96875 -13.421875 8.84375 -13.234375 9.5 -12.859375 C 9.90625 -13.441406 10.140625 -14.125 10.203125 -14.90625 L 10.453125 -15.046875 L 12.828125 -14.46875 C 12.753906 -13.84375 12.570312 -13.316406 12.28125 -12.890625 C 11.988281 -12.460938 11.53125 -12.082031 10.90625 -11.75 L 10.90625 -11.484375 C 11.644531 -10.828125 12.015625 -9.914062 12.015625 -8.75 C 12.015625 -7.9375 11.8125 -7.207031 11.40625 -6.5625 C 11 -5.914062 10.40625 -5.40625 9.625 -5.03125 C 8.851562 -4.65625 7.9375 -4.46875 6.875 -4.46875 L 6.375 -4.484375 C 6.050781 -4.492188 5.828125 -4.5 5.703125 -4.5 C 5.398438 -4.5 5.160156 -4.414062 4.984375 -4.25 C 4.816406 -4.09375 4.734375 -3.882812 4.734375 -3.625 C 4.734375 -3.351562 4.84375 -3.140625 5.0625 -2.984375 C 5.289062 -2.828125 5.617188 -2.738281 6.046875 -2.71875 L 9 -2.609375 C 11.914062 -2.523438 13.375 -1.273438 13.375 1.140625 C 13.375 1.992188 13.15625 2.753906 12.71875 3.421875 C 12.28125 4.085938 11.578125 4.613281 10.609375 5 C 9.640625 5.394531 8.378906 5.59375 6.828125 5.59375 Z M 6.875 -6.78125 C 7.507812 -6.78125 8.003906 -6.96875 8.359375 -7.34375 C 8.722656 -7.71875 8.90625 -8.253906 8.90625 -8.953125 C 8.90625 -9.640625 8.722656 -10.164062 8.359375 -10.53125 C 8.003906 -10.90625 7.507812 -11.09375 6.875 -11.09375 C 6.226562 -11.09375 5.726562 -10.90625 5.375 -10.53125 C 5.019531 -10.164062 4.84375 -9.640625 4.84375 -8.953125 C 4.84375 -8.242188 5.019531 -7.703125 5.375 -7.328125 C 5.726562 -6.960938 6.226562 -6.78125 6.875 -6.78125 Z M 6.828125 3.1875 C 7.960938 3.1875 8.785156 3.023438 9.296875 2.703125 C 9.816406 2.390625 10.078125 1.976562 10.078125 1.46875 C 10.078125 1.050781 9.941406 0.742188 9.671875 0.546875 C 9.410156 0.359375 8.992188 0.253906 8.421875 0.234375 L 5.8125 0.125 C 5.726562 0.125 5.644531 0.117188 5.5625 0.109375 C 5.488281 0.0976562 5.421875 0.09375 5.359375 0.09375 C 4.796875 0.09375 4.367188 0.210938 4.078125 0.453125 C 3.785156 0.691406 3.640625 1.023438 3.640625 1.453125 C 3.640625 2.003906 3.90625 2.429688 4.4375 2.734375 C 4.976562 3.035156 5.773438 3.1875 6.828125 3.1875 Z M 6.828125 3.1875 "/>
            </g>
        </g>
    </g>
    <g fill="#eff6ff" fill-opacity="1">
        <g transform="translate(51.383321, 27.395267)">
            <g>
                <path d="M 7.65625 0.25 C 6.363281 0.25 5.226562 -0.015625 4.25 -0.546875 C 3.28125 -1.078125 2.523438 -1.851562 1.984375 -2.875 C 1.453125 -3.894531 1.1875 -5.128906 1.1875 -6.578125 C 1.1875 -8.023438 1.453125 -9.265625 1.984375 -10.296875 C 2.523438 -11.328125 3.28125 -12.101562 4.25 -12.625 C 5.226562 -13.15625 6.363281 -13.421875 7.65625 -13.421875 C 8.945312 -13.421875 10.078125 -13.15625 11.046875 -12.625 C 12.023438 -12.101562 12.785156 -11.328125 13.328125 -10.296875 C 13.867188 -9.265625 14.140625 -8.023438 14.140625 -6.578125 C 14.140625 -5.128906 13.867188 -3.894531 13.328125 -2.875 C 12.785156 -1.851562 12.023438 -1.078125 11.046875 -0.546875 C 10.078125 -0.015625 8.945312 0.25 7.65625 0.25 Z M 7.65625 -2.5625 C 9.707031 -2.5625 10.734375 -3.898438 10.734375 -6.578125 C 10.734375 -7.972656 10.46875 -8.992188 9.9375 -9.640625 C 9.414062 -10.296875 8.65625 -10.625 7.65625 -10.625 C 5.613281 -10.625 4.59375 -9.273438 4.59375 -6.578125 C 4.59375 -3.898438 5.613281 -2.5625 7.65625 -2.5625 Z M 7.65625 -2.5625 "/>
            </g>
        </g>
    </g>
    <g fill="#eff6ff" fill-opacity="1">
        <g transform="translate(66.701508, 27.395267)">
            <g>
                <path d="M 13.890625 4.34375 C 12.347656 4.34375 11.066406 3.972656 10.046875 3.234375 C 9.035156 2.492188 8.351562 1.460938 8 0.140625 C 6.675781 -0.046875 5.515625 -0.492188 4.515625 -1.203125 C 3.523438 -1.921875 2.753906 -2.910156 2.203125 -4.171875 C 1.648438 -5.429688 1.375 -6.953125 1.375 -8.734375 C 1.375 -10.734375 1.71875 -12.40625 2.40625 -13.75 C 3.101562 -15.09375 4.0625 -16.085938 5.28125 -16.734375 C 6.507812 -17.390625 7.921875 -17.71875 9.515625 -17.71875 C 11.117188 -17.71875 12.53125 -17.390625 13.75 -16.734375 C 14.96875 -16.085938 15.921875 -15.09375 16.609375 -13.75 C 17.296875 -12.40625 17.640625 -10.734375 17.640625 -8.734375 C 17.640625 -6.117188 17.082031 -4.113281 15.96875 -2.71875 C 14.851562 -1.320312 13.28125 -0.453125 11.25 -0.109375 L 11.1875 0.125 C 11.4375 0.550781 11.804688 0.878906 12.296875 1.109375 C 12.785156 1.335938 13.359375 1.453125 14.015625 1.453125 C 14.535156 1.453125 15.007812 1.382812 15.4375 1.25 L 15.671875 1.296875 L 16.171875 3.984375 C 15.910156 4.085938 15.566406 4.171875 15.140625 4.234375 C 14.710938 4.304688 14.296875 4.34375 13.890625 4.34375 Z M 9.515625 -2.75 C 11.003906 -2.75 12.140625 -3.222656 12.921875 -4.171875 C 13.703125 -5.128906 14.09375 -6.648438 14.09375 -8.734375 C 14.09375 -10.816406 13.703125 -12.335938 12.921875 -13.296875 C 12.140625 -14.253906 11.003906 -14.734375 9.515625 -14.734375 C 8.023438 -14.734375 6.890625 -14.253906 6.109375 -13.296875 C 5.328125 -12.335938 4.9375 -10.816406 4.9375 -8.734375 C 4.9375 -6.648438 5.328125 -5.128906 6.109375 -4.171875 C 6.890625 -3.222656 8.023438 -2.75 9.515625 -2.75 Z M 9.515625 -2.75 "/>
            </g>
        </g>
    </g>
    <g fill="#eff6ff" fill-opacity="1">
        <g transform="translate(85.735729, 27.395267)">
            <g>
                <path d="M 6.03125 0.25 C 4.550781 0.25 3.457031 -0.148438 2.75 -0.953125 C 2.050781 -1.765625 1.703125 -2.925781 1.703125 -4.4375 L 1.703125 -13.171875 L 5 -13.171875 L 5 -4.859375 C 5 -4.054688 5.171875 -3.46875 5.515625 -3.09375 C 5.867188 -2.726562 6.40625 -2.546875 7.125 -2.546875 C 8.039062 -2.546875 8.753906 -2.84375 9.265625 -3.4375 C 9.773438 -4.039062 10.03125 -4.988281 10.03125 -6.28125 L 10.03125 -13.171875 L 13.34375 -13.171875 L 13.34375 0 L 10.171875 0 L 10.171875 -1.9375 L 9.921875 -2 C 9.492188 -1.238281 8.972656 -0.671875 8.359375 -0.296875 C 7.753906 0.0664062 6.976562 0.25 6.03125 0.25 Z M 6.03125 0.25 "/>
            </g>
        </g>
    </g>
    <g fill="#eff6ff" fill-opacity="1">
        <g transform="translate(100.982224, 27.395267)">
            <g>
                <path d="M 3.546875 -14.75 C 2.953125 -14.75 2.46875 -14.929688 2.09375 -15.296875 C 1.71875 -15.660156 1.53125 -16.128906 1.53125 -16.703125 C 1.53125 -17.265625 1.71875 -17.726562 2.09375 -18.09375 C 2.46875 -18.457031 2.953125 -18.640625 3.546875 -18.640625 C 3.941406 -18.640625 4.296875 -18.554688 4.609375 -18.390625 C 4.921875 -18.222656 5.160156 -17.992188 5.328125 -17.703125 C 5.503906 -17.410156 5.59375 -17.078125 5.59375 -16.703125 C 5.59375 -16.328125 5.503906 -15.988281 5.328125 -15.6875 C 5.160156 -15.394531 4.921875 -15.164062 4.609375 -15 C 4.296875 -14.832031 3.941406 -14.75 3.546875 -14.75 Z M 1.90625 0 L 1.90625 -13.171875 L 5.203125 -13.171875 L 5.203125 0 Z M 1.90625 0 "/>
            </g>
        </g>
    </g>
    <g fill="#eff6ff" fill-opacity="1">
        <g transform="translate(108.07973, 27.395267)">
            <g>
                <path d="M 11.0625 0 L 0.6875 0 L 0.6875 -2.734375 L 7.078125 -10.3125 L 7 -10.5625 L 0.984375 -10.5625 L 0.984375 -13.1875 L 10.96875 -13.1875 L 10.96875 -10.453125 L 4.59375 -2.875 L 4.671875 -2.625 L 11.0625 -2.625 Z M 11.0625 0 "/>
            </g>
        </g>
    </g>
    <g fill="#eff6ff" fill-opacity="1">
        <g transform="translate(119.837215, 27.395267)">
            <g>
                <path d="M 3.375 0.109375 C 2.945312 0.109375 2.570312 0.0234375 2.25 -0.140625 C 1.925781 -0.316406 1.675781 -0.554688 1.5 -0.859375 C 1.332031 -1.160156 1.25 -1.503906 1.25 -1.890625 C 1.25 -2.273438 1.332031 -2.617188 1.5 -2.921875 C 1.675781 -3.222656 1.925781 -3.457031 2.25 -3.625 C 2.570312 -3.800781 2.945312 -3.890625 3.375 -3.890625 C 3.800781 -3.890625 4.175781 -3.800781 4.5 -3.625 C 4.820312 -3.457031 5.066406 -3.222656 5.234375 -2.921875 C 5.410156 -2.617188 5.5 -2.28125 5.5 -1.90625 C 5.5 -1.320312 5.304688 -0.835938 4.921875 -0.453125 C 4.535156 -0.078125 4.019531 0.109375 3.375 0.109375 Z M 3.375 0.109375 "/>
            </g>
        </g>
    </g>
    <g fill="#eff6ff" fill-opacity="1">
        <g transform="translate(126.58821, 27.395267)">
            <g>
                <path d="M 3.546875 -14.75 C 2.953125 -14.75 2.46875 -14.929688 2.09375 -15.296875 C 1.71875 -15.660156 1.53125 -16.128906 1.53125 -16.703125 C 1.53125 -17.265625 1.71875 -17.726562 2.09375 -18.09375 C 2.46875 -18.457031 2.953125 -18.640625 3.546875 -18.640625 C 3.941406 -18.640625 4.296875 -18.554688 4.609375 -18.390625 C 4.921875 -18.222656 5.160156 -17.992188 5.328125 -17.703125 C 5.503906 -17.410156 5.59375 -17.078125 5.59375 -16.703125 C 5.59375 -16.328125 5.503906 -15.988281 5.328125 -15.6875 C 5.160156 -15.394531 4.921875 -15.164062 4.609375 -15 C 4.296875 -14.832031 3.941406 -14.75 3.546875 -14.75 Z M 1.90625 0 L 1.90625 -13.171875 L 5.203125 -13.171875 L 5.203125 0 Z M 1.90625 0 "/>
            </g>
        </g>
    </g>
    <g fill="#eff6ff" fill-opacity="1">
        <g transform="translate(133.685716, 27.395267)">
            <g>
                <path d="M 7.65625 0.25 C 6.363281 0.25 5.226562 -0.015625 4.25 -0.546875 C 3.28125 -1.078125 2.523438 -1.851562 1.984375 -2.875 C 1.453125 -3.894531 1.1875 -5.128906 1.1875 -6.578125 C 1.1875 -8.023438 1.453125 -9.265625 1.984375 -10.296875 C 2.523438 -11.328125 3.28125 -12.101562 4.25 -12.625 C 5.226562 -13.15625 6.363281 -13.421875 7.65625 -13.421875 C 8.945312 -13.421875 10.078125 -13.15625 11.046875 -12.625 C 12.023438 -12.101562 12.785156 -11.328125 13.328125 -10.296875 C 13.867188 -9.265625 14.140625 -8.023438 14.140625 -6.578125 C 14.140625 -5.128906 13.867188 -3.894531 13.328125 -2.875 C 12.785156 -1.851562 12.023438 -1.078125 11.046875 -0.546875 C 10.078125 -0.015625 8.945312 0.25 7.65625 0.25 Z M 7.65625 -2.5625 C 9.707031 -2.5625 10.734375 -3.898438 10.734375 -6.578125 C 10.734375 -7.972656 10.46875 -8.992188 9.9375 -9.640625 C 9.414062 -10.296875 8.65625 -10.625 7.65625 -10.625 C 5.613281 -10.625 4.59375 -9.273438 4.59375 -6.578125 C 4.59375 -3.898438 5.613281 -2.5625 7.65625 -2.5625 Z M 7.65625 -2.5625 "/>
            </g>
        </g>
    </g>
</svg>